<svg xmlns="http://www.w3.org/2000/svg" xmlns:xlink="http://www.w3.org/1999/xlink" width="500" zoomAndPan="magnify" viewBox="0 0 375 75.749997" height="101" preserveAspectRatio="xMidYMid meet" version="1.0"><defs><g/><clipPath id="c93a5e71a7"><path d="M 10.15625 60.230469 L 189.589844 60.230469 L 189.589844 72.640625 L 10.15625 72.640625 Z M 10.15625 60.230469 " clip-rule="nonzero"/></clipPath><clipPath id="8094aae907"><path d="M 189.589844 2.050781 L 366.832031 2.050781 L 366.832031 12.933594 L 189.589844 12.933594 Z M 189.589844 2.050781 " clip-rule="nonzero"/></clipPath></defs><g fill="#13294b" fill-opacity="1"><g transform="translate(16.993805, 47.262036)"><g><path d="M 22.078125 0.9375 C 18.128906 0.9375 14.726562 0.285156 11.875 -1.015625 C 9.03125 -2.316406 6.832031 -4.164062 5.28125 -6.5625 C 3.738281 -8.96875 2.96875 -11.785156 2.96875 -15.015625 L 13.46875 -15.015625 C 13.46875 -12.765625 14.238281 -11.007812 15.78125 -9.75 C 17.332031 -8.5 19.410156 -7.875 22.015625 -7.875 C 24.253906 -7.875 26.023438 -8.3125 27.328125 -9.1875 C 28.628906 -10.0625 29.28125 -11.285156 29.28125 -12.859375 C 29.28125 -14.515625 28.492188 -15.859375 26.921875 -16.890625 C 25.359375 -17.929688 22.914062 -18.8125 19.59375 -19.53125 C 14.070312 -20.695312 9.984375 -22.46875 7.328125 -24.84375 C 4.679688 -27.21875 3.359375 -30.316406 3.359375 -34.140625 C 3.359375 -38.441406 4.929688 -41.835938 8.078125 -44.328125 C 11.222656 -46.828125 15.507812 -48.078125 20.9375 -48.078125 C 24.664062 -48.078125 27.894531 -47.4375 30.625 -46.15625 C 33.363281 -44.875 35.484375 -43.078125 36.984375 -40.765625 C 38.492188 -38.453125 39.25 -35.703125 39.25 -32.515625 L 28.953125 -32.515625 C 28.953125 -34.628906 28.253906 -36.289062 26.859375 -37.5 C 25.472656 -38.707031 23.546875 -39.3125 21.078125 -39.3125 C 18.828125 -39.3125 17.050781 -38.875 15.75 -38 C 14.445312 -37.125 13.796875 -35.90625 13.796875 -34.34375 C 13.796875 -32.90625 14.515625 -31.691406 15.953125 -30.703125 C 17.390625 -29.710938 19.90625 -28.789062 23.5 -27.9375 C 29.375 -26.550781 33.613281 -24.691406 36.21875 -22.359375 C 38.820312 -20.023438 40.125 -16.992188 40.125 -13.265625 C 40.125 -8.816406 38.519531 -5.335938 35.3125 -2.828125 C 32.101562 -0.316406 27.691406 0.9375 22.078125 0.9375 Z M 22.078125 0.9375 "/></g></g></g><g fill="#13294b" fill-opacity="1"><g transform="translate(74.086162, 47.262036)"><g><path d="M 24.90625 0.9375 C 20.820312 0.9375 17.3125 0.117188 14.375 -1.515625 C 11.4375 -3.148438 9.171875 -5.484375 7.578125 -8.515625 C 5.984375 -11.546875 5.1875 -15.171875 5.1875 -19.390625 L 5.1875 -47.125 L 15.890625 -47.125 L 15.890625 -20.125 C 15.890625 -12.851562 18.894531 -9.21875 24.90625 -9.21875 C 30.925781 -9.21875 33.9375 -12.851562 33.9375 -20.125 L 33.9375 -47.125 L 44.640625 -47.125 L 44.640625 -19.390625 C 44.640625 -15.171875 43.84375 -11.546875 42.25 -8.515625 C 40.65625 -5.484375 38.382812 -3.148438 35.4375 -1.515625 C 32.5 0.117188 28.988281 0.9375 24.90625 0.9375 Z M 24.90625 0.9375 "/></g></g></g><g fill="#13294b" fill-opacity="1"><g transform="translate(137.843627, 47.262036)"><g><path d="M 5.65625 0 L 5.65625 -47.125 L 24.109375 -47.125 C 27.921875 -47.125 31.21875 -46.425781 34 -45.03125 C 36.78125 -43.644531 38.945312 -41.671875 40.5 -39.109375 C 42.050781 -36.554688 42.828125 -33.550781 42.828125 -30.09375 C 42.828125 -26.6875 42.050781 -23.703125 40.5 -21.140625 C 38.945312 -18.578125 36.78125 -16.597656 34 -15.203125 C 31.21875 -13.816406 27.921875 -13.125 24.109375 -13.125 L 16.359375 -13.125 L 16.359375 0 Z M 16.296875 -22.359375 L 23.234375 -22.359375 C 26.015625 -22.359375 28.15625 -23.019531 29.65625 -24.34375 C 31.15625 -25.664062 31.90625 -27.5625 31.90625 -30.03125 C 31.90625 -32.5 31.15625 -34.40625 29.65625 -35.75 C 28.15625 -37.09375 26.015625 -37.765625 23.234375 -37.765625 L 16.296875 -37.765625 Z M 16.296875 -22.359375 "/></g></g></g><g clip-path="url(#c93a5e71a7)"><path fill="#0f4d92" d="M 10.15625 60.230469 L 189.609375 60.230469 L 189.609375 72.640625 L 10.15625 72.640625 Z M 10.15625 60.230469 " fill-opacity="1" fill-rule="nonzero"/></g><g fill="#0f4d92" fill-opacity="1"><g transform="translate(199.103428, 71.824362)"><g><path d="M 5.578125 0 L 5.578125 -46.421875 L 23.75 -46.421875 C 27.507812 -46.421875 30.757812 -45.734375 33.5 -44.359375 C 36.238281 -42.992188 38.367188 -41.050781 39.890625 -38.53125 C 41.421875 -36.007812 42.1875 -33.050781 42.1875 -29.65625 C 42.1875 -26.289062 41.421875 -23.347656 39.890625 -20.828125 C 38.367188 -18.304688 36.238281 -16.359375 33.5 -14.984375 C 30.757812 -13.617188 27.507812 -12.9375 23.75 -12.9375 L 16.125 -12.9375 L 16.125 0 Z M 16.046875 -22.015625 L 22.890625 -22.015625 C 25.628906 -22.015625 27.738281 -22.664062 29.21875 -23.96875 C 30.695312 -25.28125 31.4375 -27.148438 31.4375 -29.578125 C 31.4375 -32.015625 30.695312 -33.894531 29.21875 -35.21875 C 27.738281 -36.539062 25.628906 -37.203125 22.890625 -37.203125 L 16.046875 -37.203125 Z M 16.046875 -22.015625 "/></g></g></g><g fill="#0f4d92" fill-opacity="1"><g transform="translate(256.94637, 71.824362)"><g><path d="M 0.59375 0 L 19.03125 -46.421875 L 29.390625 -46.421875 L 47.828125 0 L 36.546875 0 L 33.421875 -8.03125 L 14.984375 -8.03125 L 11.875 0 Z M 17.703125 -16.3125 L 30.78125 -16.3125 L 24.203125 -33.296875 Z M 17.703125 -16.3125 "/></g></g></g><g fill="#0f4d92" fill-opacity="1"><g transform="translate(319.100935, 71.824362)"><g><path d="M 5.578125 0 L 5.578125 -46.421875 L 16.125 -46.421875 L 16.125 -9.890625 L 36.421875 -9.890625 L 36.421875 0 Z M 5.578125 0 "/></g></g></g><g clip-path="url(#8094aae907)"><path fill="#13294b" d="M 189.589844 2.050781 L 366.828125 2.050781 L 366.828125 12.933594 L 189.589844 12.933594 Z M 189.589844 2.050781 " fill-opacity="1" fill-rule="nonzero"/></g></svg>